<?xml version="1.0" standalone="yes"?>
<svg xmlns="http://www.w3.org/2000/svg" width="1000" height="1000">
<path style="fill:#000000; stroke:none;" d="M596 22.3333C574.719 24.4023 553.269 24.9321 532 27C477.92 32.2579 423.59 51.7167 376 76.8333C360.297 85.121 343.537 93.9183 331 107C327.883 110.253 320.027 120.117 321.167 125C322.264 129.703 334.313 134.109 339 130.667C344.421 126.686 346.523 116.307 352 111.167C371.665 92.7117 397.998 81.1677 422 69.8333C470.083 47.1274 525.124 40.0436 577 35C582.975 34.4191 588.256 37 594 37C614.978 37 634.489 36.6844 655 42.6667C660.942 44.3998 667.966 43.6582 674 45.1667C698.962 51.4072 731.859 65.196 748 86.3333C793.964 146.524 746.731 229.234 707.333 279C702.831 284.687 698.962 295.254 693.667 299.667C686.384 305.735 681.246 311.008 677 319.5C676.933 319.633 672.785 320.33 672 321C669.286 323.315 669.65 326.289 667.667 328.833C663.548 334.116 656.244 340.458 651.667 345.667C650.587 346.896 646.281 346.878 644.333 349.333C642.909 351.13 644.697 354.201 643.667 355.167C640.298 358.325 633.263 361.152 629 365C610.485 381.715 594.35 400.391 574 414.167C569.977 416.89 565.366 421.427 562 425C561.322 425.72 559.605 429 558.5 429C557.486 429 558.068 423.644 558.167 423C559.181 416.363 560.958 409.602 562.333 403C567.526 378.074 573 351.473 573 326C573 323.187 573.433 318.62 572.667 316C570.281 307.839 556.403 309.195 552.167 314.333C549.811 317.19 551.865 320.747 552 324C552.353 332.48 552.333 341.219 552.333 349.667C552.333 367.932 546.629 389.804 542.333 408C539.902 418.296 541.447 431.73 538.167 441C532.126 458.072 507.583 465.607 495.167 477.333C485.974 486.016 476.013 490.907 465 499.167C425.739 528.612 386.721 556.837 345 582.333C329.903 591.559 315.566 603.66 300 611.333C297.29 612.669 287.94 620.324 285.167 619.333C283.481 618.731 285.598 614.997 285.833 614C287.245 608.02 288.343 601.96 289.833 596C296.046 571.149 300.629 545.819 306.833 521C323.417 454.666 335.969 387.485 351.667 321C358.155 293.521 359.289 264.656 364.667 237C369.161 213.884 365.174 189.105 369.667 166C370.638 161.002 368.343 149.045 361 150.167C357.117 150.76 355.818 154.304 353.833 157C345.889 167.792 351.416 181.259 350 194C347.45 216.951 346.174 239.804 342.167 262C340.208 272.848 342.895 284.944 339.833 296C337.761 303.482 334.975 311.122 333.333 319C332.386 323.546 333.966 328.545 332.667 333C327.712 349.988 326.05 371.819 321.167 385.167C319.452 389.852 321.574 395.648 319.833 400C319.102 401.827 316.811 400.997 316.167 403C315.609 404.734 317.118 405.436 317.167 406.833C317.164 406.77 314.345 410.609 314.167 412.333C312.946 424.132 311.861 434.298 309.5 445C308.554 449.287 304.093 453.235 303.333 458C303.026 459.929 305.093 460.59 305 462.167C304.91 463.701 301.221 466.898 300.667 469C300.042 471.368 302.143 475.868 301.333 477.667C300.771 478.916 298.819 477.675 298.167 479.167C296.784 482.328 300.538 486.489 299.167 489.667C298.527 491.149 296.448 491.438 295.667 493C294.004 496.325 296.801 498.981 296.333 502C295.906 504.76 292.695 506.296 291.833 509C289.29 516.977 289.472 526.352 287.667 534C283.644 551.036 279.405 568.346 276.167 585C273.976 596.266 270.802 608.353 268.333 619.667C267.667 622.722 264.292 623.815 265.333 627.833C265.712 629.292 267.675 629.203 268 630.667C267.234 627.22 263.612 634.566 263.333 636C260.974 648.134 257.962 657.381 255.333 670C251.359 689.079 248.699 709.43 243.833 727C239.127 743.997 231.953 763.422 230 781C229.535 785.188 226.324 788.805 225.333 793C222.214 806.21 222.987 821.039 218.667 834C212.291 853.126 207.333 876.084 207.333 896C207.333 904.847 200.307 928.869 210 934C224.752 941.81 221.681 915.658 222 908C223.583 870.005 234.459 831.932 242.667 795C250.878 758.051 257.711 718.867 269.667 683C273.809 670.572 272.756 648.156 281.167 638C285.53 632.731 294.192 629.974 300 626.667C309.481 621.267 318.926 614.716 328 608.667C365.183 583.878 403.296 561.822 440 536.333C462.978 520.376 484.563 502.958 508 487.333C513.112 483.925 518.536 480.216 523 476C524.028 475.029 527.342 470.678 529 471C529.939 471.183 527.958 480.501 527.667 482C526.05 490.314 519.613 497.883 517.333 507C516.591 509.968 518.042 515.72 516.833 517.667C510.773 527.431 511.971 535.69 508.833 546C503.966 561.993 495.823 577.798 494.5 595C494.287 597.772 491 597.021 491 600C491 602.052 493.295 603.031 493.5 605C493.721 607.119 490.852 604.325 490.167 606.167C488.661 610.212 488.449 615.05 487.167 619.167C485.403 624.828 486.307 631.923 484.167 637.667C479.606 649.907 475.565 665.447 475 679C473.704 710.114 464.717 742.741 472.333 775C476.384 792.155 481.116 809.781 490.333 825C525.216 882.598 602.254 898.935 661 919.333C693.362 930.57 726.247 941.749 759 952.667C767.209 955.403 775.647 957.629 784 959.833C785.589 960.253 791.096 962.631 792.5 961.5C794.96 959.518 791.463 956.339 790 955.5C783.766 951.925 777.281 949.569 771 946.167C747.214 933.283 719.221 927.142 694 917.333C681.141 912.333 667.221 908.557 654 904.333C588.857 883.524 499.73 849.507 492 770C490.239 751.884 488.216 732.348 490 714C496.179 650.44 511.473 586.582 531.667 526C536.628 511.116 540.855 495.245 544.667 480C546.755 471.647 547.077 459.118 552.333 452C560.774 440.57 576.64 431.214 588 423C601.334 413.358 613.976 400.117 626 388.833C640.976 374.779 658.768 361.012 671.667 345C687.503 325.341 707.117 308.818 722.667 289C731.439 277.819 738.192 265.959 745.5 254C776.157 203.834 809.805 130.656 763 78C755.354 69.3979 745.752 61.4282 736 55.3333C720.043 45.3602 701.795 39.8569 684 34.6667C669.776 30.518 654.92 26.4506 640 25C634.518 24.467 628.197 25.6772 623 24.6667C614.945 23.1003 604.279 21.5284 596 22.3333z"/>
<path style="fill:#ffffff; stroke:none;" d="M656.468 341.014L657.134 341.986L656.468 341.014M614.398 382.361L614.569 384.898L614.398 382.361z"/>
<path style="fill:#000000; stroke:none;" d="M535.333 440.667L535.667 441.333L535.333 440.667z"/>
<path style="fill:#ffffff; stroke:none;" d="M303.333 471.667L303.667 473.333L303.333 471.667M490.5 489.667L491.333 490.5L490.5 489.667M523 493L524 494L523 493M293 512L294 513L293 512M379.333 563.667L379.667 564.333L379.333 563.667M333.667 592.5L334.5 593.333L333.667 592.5M483.028 643.028L483.361 644.194L483.028 643.028M262.333 652.667L262.667 653.333L262.333 652.667M479.014 697.866L479.986 698.532L479.014 697.866M225.333 803.667L225.667 804.333L225.333 803.667z"/>
</svg>
